<svg xmlns="http://www.w3.org/2000/svg" viewBox="0 0 100 100" fill="none">
  <path d="M50 12 C29 12 12 29 12 50 C12 71 29 88 50 88 C71 88 88 71 88 50 C88 29 71 12 50 12 Z" stroke="#E74C3C" stroke-width="5" fill="rgba(231,76,60,0.12)"/>
  <path d="M32 38 C32 30 42 24 50 24 C58 24 68 30 68 38 M30 48 C30 68 40 76 50 76 C60 76 70 68 70 48" stroke="#E74C3C" stroke-width="5" stroke-linecap="round"/>
  <circle cx="38" cy="44" r="5.5" fill="#FFFFFF"/>
  <circle cx="62" cy="44" r="5.5" fill="#FFFFFF"/>
  <path d="M44 60 H56" stroke="#FFFFFF" stroke-width="4" stroke-linecap="round"/>
</svg>
